<svg viewBox="0 0 1200 900" xmlns="http://www.w3.org/2000/svg">
  <defs>
    <linearGradient id="bgGrad3" x1="0%" y1="0%" x2="100%" y2="100%">
      <stop offset="0%" style="stop-color:#0d1117"/>
      <stop offset="50%" style="stop-color:#161b22"/>
      <stop offset="100%" style="stop-color:#0d1117"/>
    </linearGradient>
    <linearGradient id="emeraldCyan" x1="0%" y1="0%" x2="100%" y2="0%">
      <stop offset="0%" style="stop-color:#10b981"/>
      <stop offset="100%" style="stop-color:#06b6d4"/>
    </linearGradient>
  </defs>

  <rect width="1200" height="900" fill="url(#bgGrad3)"/>

  <!-- Browser Frame -->
  <rect x="50" y="50" width="1100" height="800" rx="12" fill="#161b22" stroke="#30363d" stroke-width="2"/>

  <!-- Browser Top Bar -->
  <rect x="50" y="50" width="1100" height="40" rx="12" fill="#21262d"/>
  <rect x="50" y="78" width="1100" height="12" fill="#21262d"/>

  <!-- Traffic Lights -->
  <circle cx="80" cy="70" r="7" fill="#ff5f56"/>
  <circle cx="105" cy="70" r="7" fill="#ffbd2e"/>
  <circle cx="130" cy="70" r="7" fill="#27ca3f"/>

  <!-- URL Bar -->
  <rect x="170" y="58" width="400" height="24" rx="6" fill="#0d1117"/>
  <text x="190" y="75" fill="#8b949e" font-family="Arial, sans-serif" font-size="12">localhost:8000</text>

  <!-- Header in Browser -->
  <g transform="translate(80, 110)">
    <rect x="0" y="0" width="60" height="60" rx="12" fill="url(#emeraldCyan)"/>
    <text x="30" y="38" text-anchor="middle" fill="white" font-family="Arial, sans-serif" font-size="24" font-weight="bold">S</text>
    <text x="80" y="35" fill="#ffffff" font-family="Arial, sans-serif" font-size="28" font-weight="bold">MCP Security Scanner</text>
    <text x="80" y="55" fill="#8b949e" font-family="Arial, sans-serif" font-size="14">Comprehensive security analysis for Model Context Protocol servers</text>
  </g>

  <!-- Search Bar -->
  <g transform="translate(80, 190)">
    <rect x="0" y="0" width="1040" height="60" rx="12" fill="#21262d" stroke="#30363d" stroke-width="1"/>
    <text x="50" y="37" fill="#8b949e" font-family="Arial, sans-serif" font-size="14">https://github.com/owner/mcp-server</text>
    <rect x="900" y="10" width="120" height="40" rx="8" fill="url(#emeraldCyan)"/>
    <text x="960" y="37" text-anchor="middle" fill="white" font-family="Arial, sans-serif" font-size="14" font-weight="bold">Scan</text>
  </g>

  <!-- Score Cards Row -->
  <g transform="translate(80, 280)">
    <!-- User Safety Card -->
    <rect x="0" y="0" width="500" height="180" rx="15" fill="#21262d" stroke="#10b981" stroke-width="1"/>
    <text x="30" y="35" fill="#8b949e" font-family="Arial, sans-serif" font-size="14">User Safety Score</text>
    <text x="430" y="35" text-anchor="end" fill="#ffffff" font-family="Arial, sans-serif" font-size="14" font-weight="bold">Grade</text>
    <rect x="440" y="18" width="40" height="25" rx="5" fill="rgba(16,185,129,0.2)"/>
    <text x="460" y="36" text-anchor="middle" fill="#10b981" font-family="Arial, sans-serif" font-size="14" font-weight="bold">C</text>

    <!-- Score Circle -->
    <circle cx="80" cy="110" r="45" fill="none" stroke="#30363d" stroke-width="8"/>
    <circle cx="80" cy="110" r="45" fill="none" stroke="#10b981" stroke-width="8" stroke-dasharray="212 283" stroke-linecap="round" transform="rotate(-90 80 110)"/>
    <text x="80" y="115" text-anchor="middle" fill="#10b981" font-family="Arial, sans-serif" font-size="24" font-weight="bold">75</text>

    <!-- Risk Info -->
    <text x="150" y="90" fill="#eab308" font-family="Arial, sans-serif" font-size="14" font-weight="bold">MEDIUM Risk</text>
    <text x="150" y="90" fill="#8b949e" font-family="Arial, sans-serif" font-size="11" dy="18">61 issues</text>
    <text x="150" y="130" fill="#8b949e" font-family="Arial, sans-serif" font-size="12">Use with caution. Some security</text>
    <text x="150" y="145" fill="#8b949e" font-family="Arial, sans-serif" font-size="12">vulnerabilities detected.</text>

    <!-- Categories Grid -->
    <rect x="320" y="60" width="80" height="50" rx="6" fill="#21262d" stroke="#30363d" stroke-width="1"/>
    <text x="360" y="82" text-anchor="middle" fill="#8b949e" font-family="Arial, sans-serif" font-size="9">Direct Exploit</text>
    <text x="360" y="100" text-anchor="middle" fill="#ef4444" font-family="Arial, sans-serif" font-size="16" font-weight="bold">17</text>

    <rect x="405" y="60" width="80" height="50" rx="6" fill="#21262d" stroke="#30363d" stroke-width="1"/>
    <text x="445" y="82" text-anchor="middle" fill="#8b949e" font-family="Arial, sans-serif" font-size="9">Data Protect</text>
    <text x="445" y="100" text-anchor="middle" fill="#f97316" font-family="Arial, sans-serif" font-size="16" font-weight="bold">15</text>

    <rect x="320" y="115" width="80" height="50" rx="6" fill="#21262d" stroke="#30363d" stroke-width="1"/>
    <text x="360" y="137" text-anchor="middle" fill="#8b949e" font-family="Arial, sans-serif" font-size="9">Svc Integrity</text>
    <text x="360" y="155" text-anchor="middle" fill="#eab308" font-family="Arial, sans-serif" font-size="16" font-weight="bold">11</text>

    <rect x="405" y="115" width="80" height="50" rx="6" fill="#21262d" stroke="#30363d" stroke-width="1"/>
    <text x="445" y="137" text-anchor="middle" fill="#8b949e" font-family="Arial, sans-serif" font-size="9">Infrastructure</text>
    <text x="445" y="155" text-anchor="middle" fill="#8b5cf6" font-family="Arial, sans-serif" font-size="16" font-weight="bold">18</text>
  </g>

  <!-- Developer Security Card -->
  <g transform="translate(620, 280)">
    <rect x="0" y="0" width="500" height="180" rx="15" fill="#21262d" stroke="#06b6d4" stroke-width="1"/>
    <text x="30" y="35" fill="#8b949e" font-family="Arial, sans-serif" font-size="14">Developer Security</text>
    <rect x="440" y="18" width="40" height="25" rx="5" fill="rgba(239,68,68,0.2)"/>
    <text x="460" y="36" text-anchor="middle" fill="#ef4444" font-family="Arial, sans-serif" font-size="14" font-weight="bold">F</text>

    <!-- Score Circle -->
    <circle cx="80" cy="110" r="45" fill="none" stroke="#30363d" stroke-width="8"/>
    <circle cx="80" cy="110" r="45" fill="none" stroke="#ef4444" stroke-width="8" stroke-dasharray="27 283" stroke-linecap="round" transform="rotate(-90 80 110)"/>
    <text x="80" y="115" text-anchor="middle" fill="#ef4444" font-family="Arial, sans-serif" font-size="24" font-weight="bold">9.5</text>

    <!-- Info -->
    <text x="150" y="90" fill="#8b949e" font-family="Arial, sans-serif" font-size="12">77 developer issues</text>
    <text x="150" y="110" fill="#8b949e" font-family="Arial, sans-serif" font-size="11">Risk Points: 754</text>

    <!-- Severity Bar -->
    <rect x="150" y="130" width="330" height="35" rx="6" fill="#0d1117"/>
    <rect x="155" y="135" width="70" height="25" rx="4" fill="rgba(239,68,68,0.2)"/>
    <text x="190" y="152" text-anchor="middle" fill="#ef4444" font-family="Arial, sans-serif" font-size="11" font-weight="bold">35</text>
    <rect x="230" y="135" width="70" height="25" rx="4" fill="rgba(249,115,22,0.2)"/>
    <text x="265" y="152" text-anchor="middle" fill="#f97316" font-family="Arial, sans-serif" font-size="11" font-weight="bold">49</text>
    <rect x="305" y="135" width="70" height="25" rx="4" fill="rgba(234,179,8,0.2)"/>
    <text x="340" y="152" text-anchor="middle" fill="#eab308" font-family="Arial, sans-serif" font-size="11" font-weight="bold">54</text>
    <rect x="380" y="135" width="60" height="25" rx="4" fill="rgba(59,130,246,0.2)"/>
    <text x="410" y="152" text-anchor="middle" fill="#3b82f6" font-family="Arial, sans-serif" font-size="11" font-weight="bold">0</text>
    <rect x="445" y="135" width="30" height="25" rx="4" fill="rgba(107,114,128,0.2)"/>
    <text x="460" y="152" text-anchor="middle" fill="#6b7280" font-family="Arial, sans-serif" font-size="11" font-weight="bold">0</text>
  </g>

  <!-- Middle Row: Severity & Chart -->
  <g transform="translate(80, 480)">
    <!-- Severity Distribution -->
    <rect x="0" y="0" width="500" height="150" rx="15" fill="#21262d" stroke="#30363d" stroke-width="1"/>
    <text x="30" y="30" fill="#ffffff" font-family="Arial, sans-serif" font-size="14" font-weight="bold">Severity Distribution</text>

    <rect x="20" y="50" width="88" height="80" rx="8" fill="rgba(239,68,68,0.1)" stroke="rgba(239,68,68,0.3)" stroke-width="1"/>
    <text x="64" y="85" text-anchor="middle" fill="#ef4444" font-family="Arial, sans-serif" font-size="28" font-weight="bold">35</text>
    <text x="64" y="110" text-anchor="middle" fill="#fca5a5" font-family="Arial, sans-serif" font-size="9">CRITICAL</text>

    <rect x="115" y="50" width="88" height="80" rx="8" fill="rgba(249,115,22,0.1)" stroke="rgba(249,115,22,0.3)" stroke-width="1"/>
    <text x="159" y="85" text-anchor="middle" fill="#f97316" font-family="Arial, sans-serif" font-size="28" font-weight="bold">49</text>
    <text x="159" y="110" text-anchor="middle" fill="#fdba74" font-family="Arial, sans-serif" font-size="9">HIGH</text>

    <rect x="210" y="50" width="88" height="80" rx="8" fill="rgba(234,179,8,0.1)" stroke="rgba(234,179,8,0.3)" stroke-width="1"/>
    <text x="254" y="85" text-anchor="middle" fill="#eab308" font-family="Arial, sans-serif" font-size="28" font-weight="bold">54</text>
    <text x="254" y="110" text-anchor="middle" fill="#fde047" font-family="Arial, sans-serif" font-size="9">MEDIUM</text>

    <rect x="305" y="50" width="88" height="80" rx="8" fill="rgba(59,130,246,0.1)" stroke="rgba(59,130,246,0.3)" stroke-width="1"/>
    <text x="349" y="85" text-anchor="middle" fill="#3b82f6" font-family="Arial, sans-serif" font-size="28" font-weight="bold">0</text>
    <text x="349" y="110" text-anchor="middle" fill="#93c5fd" font-family="Arial, sans-serif" font-size="9">LOW</text>

    <rect x="400" y="50" width="80" height="80" rx="8" fill="rgba(107,114,128,0.1)" stroke="rgba(107,114,128,0.3)" stroke-width="1"/>
    <text x="440" y="85" text-anchor="middle" fill="#6b7280" font-family="Arial, sans-serif" font-size="28" font-weight="bold">0</text>
    <text x="440" y="110" text-anchor="middle" fill="#9ca3af" font-family="Arial, sans-serif" font-size="9">INFO</text>
  </g>

  <!-- Vulnerability Types Chart -->
  <g transform="translate(620, 480)">
    <rect x="0" y="0" width="500" height="150" rx="15" fill="#21262d" stroke="#30363d" stroke-width="1"/>
    <text x="30" y="30" fill="#ffffff" font-family="Arial, sans-serif" font-size="14" font-weight="bold">Vulnerability Types</text>

    <!-- Donut Chart Representation -->
    <circle cx="100" cy="95" r="45" fill="none" stroke="#ef4444" stroke-width="15" stroke-dasharray="60 283"/>
    <circle cx="100" cy="95" r="45" fill="none" stroke="#f97316" stroke-width="15" stroke-dasharray="50 283" stroke-dashoffset="-60"/>
    <circle cx="100" cy="95" r="45" fill="none" stroke="#eab308" stroke-width="15" stroke-dasharray="45 283" stroke-dashoffset="-110"/>
    <circle cx="100" cy="95" r="45" fill="none" stroke="#22c55e" stroke-width="15" stroke-dasharray="35 283" stroke-dashoffset="-155"/>
    <circle cx="100" cy="95" r="45" fill="none" stroke="#06b6d4" stroke-width="15" stroke-dasharray="30 283" stroke-dashoffset="-190"/>
    <circle cx="100" cy="95" r="45" fill="none" stroke="#8b5cf6" stroke-width="15" stroke-dasharray="25 283" stroke-dashoffset="-220"/>

    <!-- Legend -->
    <rect x="180" y="45" width="12" height="12" rx="2" fill="#ef4444"/>
    <text x="200" y="55" fill="#8b949e" font-family="Arial, sans-serif" font-size="11">Generic (47)</text>

    <rect x="290" y="45" width="12" height="12" rx="2" fill="#f97316"/>
    <text x="310" y="55" fill="#8b949e" font-family="Arial, sans-serif" font-size="11">Permission (20)</text>

    <rect x="180" y="70" width="12" height="12" rx="2" fill="#eab308"/>
    <text x="200" y="80" fill="#8b949e" font-family="Arial, sans-serif" font-size="11">Config (18)</text>

    <rect x="290" y="70" width="12" height="12" rx="2" fill="#22c55e"/>
    <text x="310" y="80" fill="#8b949e" font-family="Arial, sans-serif" font-size="11">Cmd Injection (15)</text>

    <rect x="180" y="95" width="12" height="12" rx="2" fill="#06b6d4"/>
    <text x="200" y="105" fill="#8b949e" font-family="Arial, sans-serif" font-size="11">Secrets (12)</text>

    <rect x="290" y="95" width="12" height="12" rx="2" fill="#8b5cf6"/>
    <text x="310" y="105" fill="#8b949e" font-family="Arial, sans-serif" font-size="11">Prompt Inj (11)</text>
  </g>

  <!-- Findings Section -->
  <g transform="translate(80, 650)">
    <rect x="0" y="0" width="1040" height="180" rx="15" fill="#21262d" stroke="#30363d" stroke-width="1"/>

    <!-- Tabs -->
    <rect x="0" y="0" width="200" height="40" rx="8" fill="#0d1117"/>
    <rect x="0" y="30" width="200" height="10" fill="#0d1117"/>
    <text x="100" y="25" text-anchor="middle" fill="#10b981" font-family="Arial, sans-serif" font-size="12" font-weight="bold">All Findings</text>
    <rect x="60" y="38" width="80" height="2" fill="#10b981"/>

    <rect x="200" y="0" width="200" height="40" fill="transparent"/>
    <text x="300" y="25" text-anchor="middle" fill="#8b949e" font-family="Arial, sans-serif" font-size="12">User Safety Issues</text>

    <rect x="400" y="0" width="200" height="40" fill="transparent"/>
    <text x="500" y="25" text-anchor="middle" fill="#8b949e" font-family="Arial, sans-serif" font-size="12">Developer Issues</text>

    <!-- Filters -->
    <text x="700" y="25" fill="#8b949e" font-family="Arial, sans-serif" font-size="11">Severity:</text>
    <rect x="750" y="10" width="40" height="22" rx="4" fill="rgba(16,185,129,0.2)"/>
    <text x="770" y="25" text-anchor="middle" fill="#10b981" font-family="Arial, sans-serif" font-size="10">All</text>
    <rect x="795" y="10" width="55" height="22" rx="4" fill="#30363d"/>
    <text x="822" y="25" text-anchor="middle" fill="#8b949e" font-family="Arial, sans-serif" font-size="10">Critical</text>

    <text x="870" y="25" fill="#8b949e" font-family="Arial, sans-serif" font-size="11">Analyzer:</text>
    <rect x="920" y="10" width="100" height="22" rx="4" fill="#30363d"/>
    <text x="970" y="25" text-anchor="middle" fill="#8b949e" font-family="Arial, sans-serif" font-size="10">All Analyzers</text>

    <!-- Finding Items -->
    <g transform="translate(20, 55)">
      <rect x="0" y="0" width="1000" height="50" rx="6" fill="#0d1117"/>
      <rect x="10" y="15" width="60" height="20" rx="4" fill="rgba(239,68,68,0.2)"/>
      <text x="40" y="29" text-anchor="middle" fill="#ef4444" font-family="Arial, sans-serif" font-size="10" font-weight="bold">CRITICAL</text>
      <text x="85" y="29" fill="#8b949e" font-family="Arial, sans-serif" font-size="10">yara</text>
      <text x="130" y="29" fill="#22d3ee" font-family="Arial, sans-serif" font-size="10">Code Injection</text>
      <text x="250" y="29" fill="#e5e7eb" font-family="Arial, sans-serif" font-size="12" font-weight="bold">Use of eval in __init__</text>
    </g>

    <g transform="translate(20, 110)">
      <rect x="0" y="0" width="1000" height="50" rx="6" fill="transparent"/>
      <rect x="10" y="15" width="60" height="20" rx="4" fill="rgba(239,68,68,0.2)"/>
      <text x="40" y="29" text-anchor="middle" fill="#ef4444" font-family="Arial, sans-serif" font-size="10" font-weight="bold">CRITICAL</text>
      <text x="85" y="29" fill="#8b949e" font-family="Arial, sans-serif" font-size="10">bandit</text>
      <text x="145" y="29" fill="#22d3ee" font-family="Arial, sans-serif" font-size="10">Permission Abuse</text>
      <text x="280" y="29" fill="#e5e7eb" font-family="Arial, sans-serif" font-size="12" font-weight="bold">Dangerous function: eval</text>
    </g>
  </g>

  <!-- Title Badge -->
  <rect x="380" y="10" width="440" height="30" rx="8" fill="rgba(16,185,129,0.1)" stroke="#10b981" stroke-width="1"/>
  <text x="600" y="30" text-anchor="middle" fill="#10b981" font-family="Arial, sans-serif" font-size="14" font-weight="bold">Web Interface - Tailwind CSS Dark Theme</text>
</svg>